<mxfile host="app.diagrams.net" modified="2020-11-30T03:45:18.641Z" agent="5.0 (Macintosh; Intel Mac OS X 10_15_7) AppleWebKit/537.36 (KHTML, like Gecko) Chrome/86.0.4240.198 Safari/537.36" etag="mCe2czPzAaid4zAB7z_S" version="13.10.4" type="github">
  <diagram id="Gkd9JVLOz9QBhScUo6AE" name="Page-1">
    <mxGraphModel dx="1426" dy="794" grid="1" gridSize="10" guides="1" tooltips="1" connect="1" arrows="1" fold="1" page="1" pageScale="1" pageWidth="827" pageHeight="1169" math="0" shadow="0">
      <root>
        <mxCell id="0" />
        <mxCell id="1" parent="0" />
        <mxCell id="ELaqHC2EYmTAkymVY5jJ-7" style="edgeStyle=orthogonalEdgeStyle;rounded=0;orthogonalLoop=1;jettySize=auto;html=1;" edge="1" parent="1" source="ELaqHC2EYmTAkymVY5jJ-1" target="ELaqHC2EYmTAkymVY5jJ-2">
          <mxGeometry relative="1" as="geometry" />
        </mxCell>
        <mxCell id="ELaqHC2EYmTAkymVY5jJ-1" value="" style="rounded=0;whiteSpace=wrap;html=1;" vertex="1" parent="1">
          <mxGeometry x="340" y="320" width="120" height="60" as="geometry" />
        </mxCell>
        <mxCell id="ELaqHC2EYmTAkymVY5jJ-4" style="edgeStyle=orthogonalEdgeStyle;rounded=0;orthogonalLoop=1;jettySize=auto;html=1;exitX=1;exitY=0.5;exitDx=0;exitDy=0;entryX=0;entryY=0.5;entryDx=0;entryDy=0;" edge="1" parent="1" source="ELaqHC2EYmTAkymVY5jJ-2" target="ELaqHC2EYmTAkymVY5jJ-8">
          <mxGeometry relative="1" as="geometry">
            <mxPoint x="500" y="510" as="targetPoint" />
          </mxGeometry>
        </mxCell>
        <mxCell id="ELaqHC2EYmTAkymVY5jJ-6" style="edgeStyle=orthogonalEdgeStyle;rounded=0;orthogonalLoop=1;jettySize=auto;html=1;entryX=0.5;entryY=0;entryDx=0;entryDy=0;" edge="1" parent="1" source="ELaqHC2EYmTAkymVY5jJ-2" target="ELaqHC2EYmTAkymVY5jJ-5">
          <mxGeometry relative="1" as="geometry" />
        </mxCell>
        <mxCell id="ELaqHC2EYmTAkymVY5jJ-2" value="" style="rhombus;whiteSpace=wrap;html=1;" vertex="1" parent="1">
          <mxGeometry x="360" y="470" width="80" height="80" as="geometry" />
        </mxCell>
        <mxCell id="ELaqHC2EYmTAkymVY5jJ-5" value="" style="ellipse;whiteSpace=wrap;html=1;aspect=fixed;" vertex="1" parent="1">
          <mxGeometry x="360" y="620" width="80" height="80" as="geometry" />
        </mxCell>
        <mxCell id="ELaqHC2EYmTAkymVY5jJ-8" value="" style="rounded=0;whiteSpace=wrap;html=1;" vertex="1" parent="1">
          <mxGeometry x="590" y="480" width="120" height="60" as="geometry" />
        </mxCell>
      </root>
    </mxGraphModel>
  </diagram>
</mxfile>
